:FULLY-SPECIFIED
:FORCE-ALL-JOINTS-BE-3DOF
:DEGREES
68
root 6.9578 16.6856 -27.2269 -0.288914 2.9851 1.76688
lfemur -13.354 7.73656 -21.2969
ltibia 35.6608 -0 0
lfoot -28.7743 -3.97634 -0.80727
ltoes 35.29 -0 0
rfemur -54.6288 -18.8952 31.9546
rtibia 63.0341 -0 0
rfoot -7.24363 7.47185 4.22608
rtoes -6.69427 0 0
lowerback 6.51508 0.0245313 -6.55263
upperback 1.1951 -0.455649 0.797401
thorax -2.21917 -0.108424 5.02344
lowerneck -11.0801 -1.49391 0.772211
upperneck -0.62699 -2.11625 0.949353
head 1.6841 -1.02137 0.0956156
lclavicle -6.49542e-14 -1.35156e-14 -1.72521e-29
lhumerus -41.7673 -16.5953 94.936
lradius 43.4262 -0 0
lwrist 9.97204 0 0
lhand -1.40669 4.58107 0.216933
lfingers 7.12502 -0 0
lthumb 24.2021 32.6545 0.0703709
rclavicle -6.49542e-14 -1.35156e-14 -1.72521e-29
rhumerus -43.0661 -15.5018 -72.7294
rradius 61.0407 -0 0
rwrist -13.8485 0 0
rhand -26.1444 -24.2548 0.0239613
rfingers 7.12502 -0 0
rthumb 0.406206 -54.2284 0.0238299
69
root 6.97211 16.6822 -27.21 -0.473791 3.11404 1.8417
lfemur -13.2242 7.84469 -21.304
ltibia 35.6709 -0 0
lfoot -28.5802 -4.14331 -0.808709
ltoes 35.2215 -0 0
rfemur -55.4084 -19.1801 32.342
rtibia 63.592 -0 0
rfoot -6.77146 7.83799 4.23415
rtoes -7.2614 0 0
lowerback 6.70539 -0.0448393 -6.59111
upperback 1.2724 -0.562888 0.74973
thorax -2.22929 -0.163223 5.00562
lowerneck -11.105 -1.47881 0.747303
upperneck -0.610878 -2.09496 0.995617
head 1.69472 -1.00934 0.115317
lclavicle -6.38748e-14 -1.29194e-14 -1.73102e-29
lhumerus -41.7572 -16.7166 94.8522
lradius 43.5974 -0 0
lwrist 10.1187 0 0
lhand -1.2023 4.62269 0.217561
lfingers 7.12502 -0 0
lthumb 24.3978 32.6679 0.0707225
rclavicle -6.38748e-14 -1.29194e-14 -1.73102e-29
rhumerus -43.073 -15.7222 -72.4813
rradius 61.4288 -0 0
rwrist -14.3161 0 0
rhand -26.1876 -24.2927 0.0238141
rfingers 7.12502 -0 0
rthumb 0.36446 -54.2664 0.0236961
70
root 6.98644 16.6789 -27.1931 -0.658616 3.24335 1.91614
lfemur -13.0943 7.9529 -21.3109
ltibia 35.681 -0 0
lfoot -28.386 -4.3104 -0.809584
ltoes 35.153 -0 0
rfemur -56.1918 -19.4601 32.7344
rtibia 64.1503 -0 0
rfoot -6.29875 8.20427 4.23921
rtoes -7.82835 0 0
lowerback 6.89586 -0.114127 -6.62985
upperback 1.34983 -0.670132 0.7019
thorax -2.23941 -0.21806 4.98781
lowerneck -11.13 -1.46371 0.72237
upperneck -0.594739 -2.07368 1.04191
head 1.70534 -0.997302 0.135031
lclavicle -6.27908e-14 -1.23236e-14 -1.73558e-29
lhumerus -41.7469 -16.8379 94.7684
lradius 43.7687 -0 0
lwrist 10.2654 0 0
lhand -0.997747 4.66453 0.218027
lfingers 7.12502 -0 0
lthumb 24.5936 32.6816 0.0710137
rclavicle -6.27908e-14 -1.23236e-14 -1.73558e-29
rhumerus -43.0808 -15.9428 -72.2327
rradius 61.8172 -0 0
rwrist -14.7839 0 0
rhand -26.231 -24.3307 0.0236506
rfingers 7.12502 -0 0
rthumb 0.322547 -54.3046 0.0235462
71
root 7.00077 16.6756 -27.1762 -0.843341 3.37297 1.99016
lfemur -12.9644 8.06116 -21.3175
ltibia 35.6912 -0 0
lfoot -28.1917 -4.47759 -0.809894
ltoes 35.0845 -0 0
rfemur -56.9788 -19.735 33.1315
rtibia 64.7089 -0 0
rfoot -5.82563 8.57055 4.24125
rtoes -8.39494 0 0
lowerback 7.08645 -0.183312 -6.66882
upperback 1.42736 -0.777352 0.653923
thorax -2.24954 -0.27292 4.97002
lowerneck -11.155 -1.44864 0.697418
upperneck -0.578579 -2.05242 1.08822
head 1.71598 -0.985272 0.154753
lclavicle -6.17025e-14 -1.17283e-14 -1.73889e-29
lhumerus -41.7363 -16.9592 94.6844
lradius 43.94 -0 0
lwrist 10.4121 0 0
lhand -0.793075 4.70658 0.218328
lfingers 7.12502 -0 0
lthumb 24.7895 32.6954 0.071244
rclavicle -6.17025e-14 -1.17283e-14 -1.73889e-29
rhumerus -43.0897 -16.1634 -71.9837
rradius 62.2056 -0 0
rwrist -15.2518 0 0
rhand -26.2746 -24.3689 0.0234709
rfingers 7.12502 -0 0
rthumb 0.280472 -54.3429 0.0233803
72
root 7.0151 16.6722 -27.1593 -1.02792 3.50288 2.06375
lfemur -12.8345 8.16945 -21.3238
ltibia 35.7014 -0 0
lfoot -27.9974 -4.64481 -0.809639
ltoes 35.016 -0 0
rfemur -57.7692 -20.0047 33.5333
rtibia 65.2676 -0 0
rfoot -5.35224 8.93672 4.24028
rtoes -8.96102 0 0
lowerback 7.27712 -0.252375 -6.70803
upperback 1.50498 -0.88452 0.605811
thorax -2.25968 -0.327788 4.95226
lowerneck -11.1799 -1.43358 0.672454
upperneck -0.562402 -2.03118 1.13454
head 1.72661 -0.973249 0.174479
lclavicle -6.06102e-14 -1.11339e-14 -1.74094e-29
lhumerus -41.7256 -17.0806 94.6005
lradius 44.1112 -0 0
lwrist 10.5588 0 0
lhand -0.588342 4.74883 0.218466
lfingers 7.12502 -0 0
lthumb 24.9855 32.7094 0.0714129
rclavicle -6.06102e-14 -1.11339e-14 -1.74094e-29
rhumerus -43.0997 -16.384 -71.7345
rradius 62.594 -0 0
rwrist -15.7196 0 0
rhand -26.3183 -24.4071 0.0232753
rfingers 7.12502 -0 0
rthumb 0.23824 -54.3813 0.0231986
73
root 7.02942 16.6689 -27.1424 -1.21229 3.63304 2.13689
lfemur -12.7046 8.27774 -21.3299
ltibia 35.7117 -0 0
lfoot -27.8032 -4.81203 -0.808818
ltoes 34.9475 -0 0
rfemur -58.5628 -20.2691 33.9395
rtibia 65.8264 -0 0
rfoot -4.87871 9.30263 4.2363
rtoes -9.5264 0 0
lowerback 7.4678 -0.321299 -6.74745
upperback 1.58266 -0.991607 0.557577
thorax -2.26981 -0.38265 4.93451
lowerneck -11.2049 -1.41854 0.647484
upperneck -0.546212 -2.00996 1.18085
head 1.73725 -0.961237 0.194202
lclavicle -5.95142e-14 -1.05405e-14 -1.74173e-29
lhumerus -41.7146 -17.202 94.5164
lradius 44.2824 -0 0
lwrist 10.7054 0 0
lhand -0.383604 4.79125 0.218438
lfingers 7.12502 -0 0
lthumb 25.1815 32.7236 0.0715198
rclavicle -5.95142e-14 -1.05405e-14 -1.74173e-29
rhumerus -43.1106 -16.6045 -71.485
rradius 62.9823 -0 0
rwrist -16.1872 0 0
rhand -26.3622 -24.4456 0.0230641
rfingers 7.12502 -0 0
rthumb 0.195857 -54.4198 0.0230013
74
root 7.04373 16.6656 -27.1255 -1.39643 3.76341 2.20956
lfemur -12.5749 8.38599 -21.3356
ltibia 35.7219 -0 0
lfoot -27.6091 -4.97919 -0.807433
ltoes 34.8791 -0 0
rfemur -59.3592 -20.5281 34.3501
rtibia 66.3849 -0 0
rfoot -4.4052 9.66815 4.22931
rtoes -10.0909 0 0
lowerback 7.65844 -0.390063 -6.78707
upperback 1.66039 -1.09859 0.509232
thorax -2.27994 -0.437492 4.91679
lowerneck -11.2299 -1.40353 0.622515
upperneck -0.530014 -1.98878 1.22715
head 1.74788 -0.94924 0.213919
lclavicle -5.8415e-14 -9.94822e-15 -1.74125e-29
lhumerus -41.7035 -17.3234 94.4324
lradius 44.4535 -0 0
lwrist 10.8519 0 0
lhand -0.178915 4.83384 0.218246
lfingers 7.12502 -0 0
lthumb 25.3775 32.738 0.0715646
rclavicle -5.8415e-14 -9.94822e-15 -1.74125e-29
rhumerus -43.1226 -16.8248 -71.2353
rradius 63.3705 -0 0
rwrist -16.6546 0 0
rhand -26.4062 -24.4841 0.0228374
rfingers 7.12502 -0 0
rthumb 0.153328 -54.4584 0.0227886
75
root 7.05803 16.6622 -27.1086 -1.58026 3.89397 2.28174
lfemur -12.4452 8.49417 -21.3411
ltibia 35.7322 -0 0
lfoot -27.4152 -5.14626 -0.805485
ltoes 34.8107 -0 0
rfemur -60.1584 -20.7814 34.7648
rtibia 66.9432 -0 0
rfoot -3.93183 10.0332 4.21932
rtoes -10.6544 0 0
lowerback 7.849 -0.45865 -6.82689
upperback 1.73814 -1.20543 0.460789
thorax -2.29006 -0.492299 4.89911
lowerneck -11.2548 -1.38854 0.597554
upperneck -0.513812 -1.96764 1.27342
head 1.75851 -0.93726 0.233623
lclavicle -5.73128e-14 -9.35737e-15 -1.7395e-29
lhumerus -41.6921 -17.4446 94.3484
lradius 44.6244 -0 0
lwrist 10.9983 0 0
lhand 0.0256699 4.87656 0.217888
lfingers 7.12502 -0 0
lthumb 25.5734 32.7525 0.071547
rclavicle -5.73128e-14 -9.35737e-15 -1.7395e-29
rhumerus -43.1355 -17.0449 -70.9854
rradius 63.7583 -0 0
rwrist -17.1214 0 0
rhand -26.4504 -24.5227 0.0225955
rfingers 7.12502 -0 0
rthumb 0.110659 -54.4972 0.0225608
76
root 7.07232 16.6589 -27.0917 -1.76376 4.02466 2.35342
lfemur -12.3157 8.60227 -21.3464
ltibia 35.7426 -0 0
lfoot -27.2214 -5.31319 -0.802976
ltoes 34.7424 -0 0
rfemur -60.9601 -21.029 35.1834
rtibia 67.501 -0 0
rfoot -3.45874 10.3976 4.20633
rtoes -11.2166 0 0
lowerback 8.03942 -0.527041 -6.86689
upperback 1.81589 -1.3121 0.412262
thorax -2.30017 -0.547056 4.88147
lowerneck -11.2797 -1.37359 0.572608
upperneck -0.49761 -1.94654 1.31964
head 1.76913 -0.925301 0.25331
lclavicle -5.62079e-14 -8.76813e-15 -1.73648e-29
lhumerus -41.6805 -17.5658 94.2644
lradius 44.7951 -0 0
lwrist 11.1445 0 0
lhand 0.230096 4.91941 0.217366
lfingers 7.12502 -0 0
lthumb 25.7691 32.7672 0.0714668
rclavicle -5.62079e-14 -8.76813e-15 -1.73648e-29
rhumerus -43.1496 -17.2648 -70.7355
rradius 64.1457 -0 0
rwrist -17.5878 0 0
rhand -26.4947 -24.5614 0.0223387
rfingers 7.12502 -0 0
rthumb 0.0678543 -54.536 0.0223182
77
root 7.08658 16.6556 -27.0749 -1.94687 4.15546 2.42457
lfemur -12.1864 8.71024 -21.3513
ltibia 35.7529 -0 0
lfoot -27.028 -5.47992 -0.79991
ltoes 34.6743 -0 0
rfemur -61.7639 -21.2708 35.6059
rtibia 68.0582 -0 0
rfoot -2.98607 10.7612 4.19037
rtoes -11.7775 0 0
lowerback 8.22965 -0.595217 -6.90706
upperback 1.89362 -1.41858 0.363662
thorax -2.31026 -0.601748 4.86386
lowerneck -11.3046 -1.35868 0.547682
upperneck -0.481413 -1.92549 1.36581
head 1.77975 -0.913366 0.272974
lclavicle -5.51008e-14 -8.18068e-15 -1.7322e-29
lhumerus -41.6687 -17.6868 94.1805
lradius 44.9655 -0 0
lwrist 11.2905 0 0
lhand 0.434309 4.96236 0.216679
lfingers 7.12502 -0 0
lthumb 25.9646 32.782 0.0713239
rclavicle -5.51008e-14 -8.18068e-15 -1.7322e-29
rhumerus -43.1646 -17.4843 -70.4856
rradius 64.5327 -0 0
rwrist -18.0534 0 0
rhand -26.5392 -24.6002 0.0220673
rfingers 7.12502 -0 0
rthumb 0.0249194 -54.5749 0.0220609
78
root 7.10082 16.6522 -27.058 -2.12953 4.28632 2.49518
lfemur -12.0574 8.81807 -21.356
ltibia 35.7633 -0 0
lfoot -26.8349 -5.64642 -0.796288
ltoes 34.6062 -0 0
rfemur -62.5696 -21.5066 36.0319
rtibia 68.6147 -0 0
rfoot -2.51397 11.1239 4.17145
rtoes -12.3369 0 0
lowerback 8.41963 -0.663161 -6.94739
upperback 1.97132 -1.52484 0.315002
thorax -2.32034 -0.656363 4.8463
lowerneck -11.3294 -1.34382 0.522784
upperneck -0.465225 -1.9045 1.41192
head 1.79034 -0.901459 0.292611
lclavicle -5.39917e-14 -7.59523e-15 -1.72666e-29
lhumerus -41.6567 -17.8077 94.0966
lradius 45.1356 -0 0
lwrist 11.4362 0 0
lhand 0.638254 5.0054 0.215829
lfingers 7.12502 -0 0
lthumb 26.1598 32.7969 0.0711186
rclavicle -5.39917e-14 -7.59523e-15 -1.72666e-29
rhumerus -43.1806 -17.7034 -70.2358
rradius 64.919 -0 0
rwrist -18.5182 0 0
rhand -26.5838 -24.6391 0.0217816
rfingers 7.12502 -0 0
rthumb -0.0181402 -54.6139 0.0217894
79
root 7.11503 16.6489 -27.0413 -2.31172 4.41722 2.56522
lfemur -11.9285 8.92571 -21.3603
ltibia 35.7736 -0 0
lfoot -26.6421 -5.81263 -0.792115
ltoes 34.5383 -0 0
rfemur -63.377 -21.7363 36.4612
rtibia 69.1703 -0 0
rfoot -2.04256 11.4856 4.1496
rtoes -12.8945 0 0
lowerback 8.60932 -0.730855 -6.98786
upperback 2.04895 -1.63085 0.266297
thorax -2.3304 -0.710884 4.82879
lowerneck -11.3542 -1.329 0.49792
upperneck -0.449052 -1.88357 1.45795
head 1.80093 -0.889582 0.312215
lclavicle -5.28809e-14 -7.01197e-15 -1.71987e-29
lhumerus -41.6445 -17.9284 94.0128
lradius 45.3054 -0 0
lwrist 11.5816 0 0
lhand 0.841875 5.0485 0.214815
lfingers 7.12502 -0 0
lthumb 26.3547 32.8119 0.0708508
rclavicle -5.28809e-14 -7.01197e-15 -1.71987e-29
rhumerus -43.1977 -17.9221 -69.986
rradius 65.3046 -0 0
rwrist -18.982 0 0
rhand -26.6285 -24.6781 0.0214818
rfingers 7.12502 -0 0
rthumb -0.0613193 -54.6529 0.0215038
